IKResults
version=1
nRows=9
nColumns=63
inDegrees=yes

Units are S.I. units (second, meters, Newtons, ...)
If the header above contains a line with 'inDegrees', this indicates whether rotational values are in degrees (yes) or radians (no).

endheader
time	pelvis_tilt	pelvis_list	pelvis_rotation	pelvis_tx	pelvis_ty	pelvis_tz	hip_flexion_r	hip_adduction_r	hip_rotation_r	knee_angle_r	knee_angle_r_beta	ankle_angle_r	subtalar_angle_r	mtp_angle_r	hip_flexion_l	hip_adduction_l	hip_rotation_l	knee_angle_l	knee_angle_l_beta	ankle_angle_l	subtalar_angle_l	mtp_angle_l	L5_S1_Flex_Ext	L5_S1_Lat_Bending	L5_S1_axial_rotation	L4_L5_Flex_Ext	L4_L5_Lat_Bending	L4_L5_axial_rotation	L3_L4_Flex_Ext	L3_L4_Lat_Bending	L3_L4_axial_rotation	L2_L3_Flex_Ext	L2_L3_Lat_Bending	L2_L3_axial_rotation	L1_L2_Flex_Ext	L1_L2_Lat_Bending	L1_L2_axial_rotation	L1_T12_Flex_Ext	L1_T12_Lat_Bending	L1_T12_axial_rotation	Abs_r3	Abs_r2	Abs_r1	Abs_t1	Abs_t2	neck_flexion	neck_bending	neck_rotation	arm_flex_r	arm_add_r	arm_rot_r	elbow_flex_r	pro_sup_r	wrist_flex_r	wrist_dev_r	arm_flex_l	arm_add_l	arm_rot_l	elbow_flex_l	pro_sup_l	wrist_flex_l	wrist_dev_l
      0.03333333	    110.51726137	      1.35427290	      6.78985779	     -0.83867013	      0.17685869	      0.01367359	    -12.37071423	    -11.44598964	     -4.89663849	     29.77494174	      0.51967077	    -35.03573838	    -18.84395670	      0.00000000	    -10.46473193	    -19.16995499	     -6.49840372	     21.80017679	      0.38048486	    -36.69184795	    -19.13315990	      0.00000000	     -6.06079461	     -0.12367535	     -1.38310910	    -11.25550168	     -0.16448822	     -1.46955341	     -9.95727947	     -0.30070425	     -1.46955341	     -6.92688216	     -0.30070425	     -1.21022046	     -5.62805388	     -0.25219878	     -1.12377614	     -3.46313804	     -0.19157312	     -1.03733182	    -43.29164985	     -1.39904031	     -7.69243786	      0.00000000	      0.00000000	      2.88470897	      0.91239355	      7.31980777	      0.00000000	    -90.00000009	      0.00000000	     74.86107586	     89.99559364	      0.00000000	      0.00000000	    -52.19724882	    -56.77176914	    -58.46647455	     53.64425050	     89.99559364	      0.00000000	      0.00000000
      0.06666667	    110.45475432	      1.41388344	      6.70687731	     -0.83886758	      0.17731854	      0.01378680	    -12.37875837	    -11.54561388	     -4.94937548	     29.69321530	      0.51824437	    -35.00063244	    -18.89736917	      0.00000000	    -10.44404545	    -19.00853705	     -6.50340037	     21.83787675	      0.38114285	    -36.76973810	    -19.17921189	      0.00000000	     -6.03822825	     -0.13624506	     -1.38881929	    -11.21359367	     -0.18120593	     -1.47562050	     -9.92020518	     -0.33126624	     -1.47562050	     -6.90109106	     -0.33126624	     -1.21521688	     -5.60709875	     -0.27783092	     -1.12841567	     -3.45024362	     -0.21104360	     -1.04161447	    -43.13046053	     -1.54123135	     -7.72419625	      0.00000000	      0.00000000	      3.01410358	      1.00766671	      7.24213085	      0.00000000	    -90.00000009	      0.00000000	     74.86123176	     89.99559364	      0.00000000	      0.00000000	    -52.19290008	    -56.68064394	    -58.39784399	     53.62569031	     89.99559364	      0.00000000	      0.00000000
      0.10000000	    110.28167300	      1.59700920	      6.54210950	     -0.83920754	      0.17824611	      0.01400158	    -12.33842543	    -11.83605594	     -5.12649083	     29.57111413	      0.51611331	    -34.88943293	    -18.93140548	      0.00000000	    -10.35940691	    -18.60632996	     -6.46377330	     21.85392489	      0.38142294	    -37.05133836	    -19.16577912	      0.00000000	     -5.98633757	     -0.16918813	     -1.40100879	    -11.11722750	     -0.22502022	     -1.48857184	     -9.83495399	     -0.41136403	     -1.48857184	     -6.84178521	     -0.41136403	     -1.22588269	     -5.55891307	     -0.34500844	     -1.13831964	     -3.42059329	     -0.26207242	     -1.05075659	    -42.75981062	     -1.91389000	     -7.79199060	      0.00000000	      0.00000000	      3.25942031	      1.26485825	      6.98587397	      0.00000000	    -90.00000009	      0.00000000	     74.86145169	     89.99559364	      0.00000000	      0.00000000	    -52.19141114	    -56.54462464	    -58.32058463	     53.53732621	     89.99559364	      0.00000000	      0.00000000
      0.13333333	    109.50836676	      2.42187094	      6.28651706	     -0.83870300	      0.18018906	      0.01517628	    -11.53136203	    -13.09252972	     -6.24045849	     30.16930829	      0.52655376	    -33.84178832	    -18.90542801	      0.00000000	     -9.81596731	    -17.37861109	     -6.13227833	     21.62419460	      0.37741339	    -37.88583884	    -19.19115012	      0.00000000	     -5.81259193	     -0.30978978	     -1.46157857	    -10.79456447	     -0.41202041	     -1.55292723	     -9.54950728	     -0.75322287	     -1.55292723	     -6.64321131	     -0.75322287	     -1.27888125	     -5.39757286	     -0.63172332	     -1.18753259	     -3.32131503	     -0.47986437	     -1.09618393	    -41.51876288	     -3.50440395	     -8.12886154	      0.00000000	      0.00000000	      2.98863766	      2.34726925	      5.55535365	      0.00000000	    -90.00000009	      0.00000000	     74.86380455	     89.99559364	      0.00000000	      0.00000000	    -53.33518792	    -56.62465518	    -59.08376220	     53.53913126	     89.99559364	      0.00000000	      0.00000000
      0.16666667	    109.10473207	      2.79458661	      6.06843932	     -0.83888987	      0.18204267	      0.01560009	    -11.31554763	    -13.69486881	     -6.77897513	     30.14518389	      0.52613271	    -33.36237047	    -18.96460745	      0.00000000	     -9.63297640	    -16.58932977	     -5.83484572	     21.35989742	      0.37280054	    -38.82480900	    -19.17062213	      0.00000000	     -5.69770121	     -0.37366486	     -1.49562897	    -10.58120091	     -0.49697426	     -1.58910578	     -9.36075332	     -0.90852874	     -1.58910578	     -6.51190271	     -0.90852874	     -1.30867535	     -5.29088534	     -0.76197738	     -1.21519854	     -3.25566647	     -0.57880687	     -1.12172173	    -40.69810996	     -4.22697161	     -8.31823964	      0.00000000	      0.00000000	      3.24097782	      2.77606640	      4.93081323	      0.00000000	    -90.00000009	      0.00000000	     74.86436789	     89.99559364	      0.00000000	      0.00000000	    -53.02702752	    -56.36862747	    -59.21255083	     53.11446056	     89.99559364	      0.00000000	      0.00000000
      0.20000000	    108.05065654	      3.56359474	      5.86947495	     -0.83789233	      0.18486079	      0.01641977	    -10.30916508	    -14.99696950	     -8.18132614	     30.71498530	      0.53607762	    -32.05136267	    -18.95901367	      0.00000000	     -8.79944565	    -15.24958730	     -5.15098863	     21.07065283	      0.36775227	    -39.85916212	    -19.18295264	      0.00000000	     -5.45267325	     -0.50706648	     -1.58415662	    -10.12615950	     -0.67439842	     -1.68316641	     -8.95819689	     -1.23288144	     -1.68316641	     -6.23186026	     -1.23288144	     -1.38613705	     -5.06335238	     -1.03400997	     -1.28712726	     -3.11565750	     -0.78544598	     -1.18811747	    -38.94789979	     -5.73603743	     -8.81060390	      0.00000000	      0.00000000	      2.98359372	      3.71956587	      3.47944251	      0.00000000	    -90.00000009	      0.00000000	     74.86661004	     89.99559364	      0.00000000	      0.00000000	    -53.87737384	    -56.09836643	    -59.97132163	     52.91636160	     89.99559364	      0.00000000	      0.00000000
      0.23333333	    107.27314651	      4.19594465	      5.70791496	     -0.83735203	      0.18742708	      0.01713493	     -9.68968157	    -16.07190910	     -9.48951265	     31.03849094	      0.54172386	    -30.91008013	    -19.00340654	      0.00000000	     -8.22425938	    -14.02624982	     -4.26784325	     20.73792328	      0.36194504	    -41.08996662	    -19.17290731	      0.00000000	     -5.25756214	     -0.61595444	     -1.67052461	     -9.76381865	     -0.81921940	     -1.77493240	     -8.63764884	     -1.49763162	     -1.77493240	     -6.00886777	     -1.49763162	     -1.46170903	     -4.88217220	     -1.25605429	     -1.35730124	     -3.00417101	     -0.95411342	     -1.25289346	    -37.55424062	     -6.96779977	     -9.29095671	      0.00000000	      0.00000000	      2.99160647	      4.39829270	      2.25419100	      0.00000000	    -90.00000009	      0.00000000	     74.86850886	     89.99559364	      0.00000000	      0.00000000	    -54.12042535	    -55.76393182	    -60.58149092	     52.39330313	     89.99559364	      0.00000000	      0.00000000
      0.26666667	    106.56662015	      4.96251654	      5.65763921	     -0.83697118	      0.18976379	      0.01795749	     -9.20780727	    -17.25916156	    -10.96991143	     31.35556975	      0.54725793	    -29.65882938	    -19.05673866	      0.00000000	     -7.62286611	    -12.63109226	     -3.00859832	     20.52747598	      0.35827204	    -42.28718373	    -19.14840964	      0.00000000	     -5.08079938	     -0.74101545	     -1.78851951	     -9.43555254	     -0.98555055	     -1.90030198	     -8.34724531	     -1.80170496	     -1.90030198	     -5.80684562	     -1.80170496	     -1.56495457	     -4.71803031	     -1.51107870	     -1.45317210	     -2.90316877	     -1.14783293	     -1.34138963	    -36.29164192	     -8.38251496	     -9.94720895	      0.00000000	      0.00000000	      3.07104246	      5.14041134	      0.87224180	      0.00000000	    -90.00000009	      0.00000000	     74.87048004	     89.99559364	      0.00000000	      0.00000000	    -54.58743703	    -55.46781272	    -61.37116836	     51.97607801	     89.99559364	      0.00000000	      0.00000000
      0.30000000	    106.12268747	      5.92902381	      5.68600887	     -0.83717752	      0.19143480	      0.01908416	     -9.05105814	    -18.58069343	    -12.53995606	     31.62704742	      0.55199611	    -28.47619064	    -19.11481188	      0.00000000	     -7.17321340	    -11.00027927	     -1.33901696	     20.53892339	      0.35847184	    -43.33516734	    -19.11371056	      0.00000000	     -4.96528924	     -0.88943269	     -1.92698665	     -9.22103865	     -1.18294547	     -2.04742331	     -8.15747370	     -2.16256663	     -2.04742331	     -5.67482908	     -2.16256663	     -1.68611332	     -4.61076759	     -1.81373113	     -1.56567665	     -2.83716627	     -1.37773123	     -1.44523999	    -35.46656454	    -10.06144042	    -10.71732164	      0.00000000	      0.00000000	      3.31817131	      5.95446669	     -0.77559936	      0.00000000	    -90.00000009	      0.00000000	     74.87209495	     89.99559364	      0.00000000	      0.00000000	    -55.35134826	    -55.43891395	    -62.10799038	     51.62665658	     89.99559364	      0.00000000	      0.00000000
